<svg xmlns="http://www.w3.org/2000/svg" viewBox="0 0 400 300" width="406" height="306" class="illustration styles_illustrationTablet__1DWOa"><g id="_312_data_analytics_outline" data-name="#312_data_analytics_outline"><rect x="148.14" y="86.93" width="99.48" height="134.04" fill="#68e1fd"></rect><path d="M247.63,222H148.14a1,1,0,0,1-1-1v-134a1,1,0,0,1,1-1h99.49a1,1,0,0,1,1,1V221A1,1,0,0,1,247.63,222Zm-98.49-2h97.49v-132H149.14Z" fill="#093f68"></path><rect x="155.65" y="79.14" width="99.48" height="134.04" fill="#fff"></rect><path d="M255.14,214.18H155.65a1,1,0,0,1-1-1v-134a1,1,0,0,1,1-1h99.49a1,1,0,0,1,1,1v134A1,1,0,0,1,255.14,214.18Zm-98.49-2h97.49v-132H156.65Z" fill="#093f68"></path><path d="M177.36,129.34a1,1,0,0,1-.67-1.74l17.95-16a1,1,0,0,1,1.07-.16l16.4,7.44,20.64-19.18a1,1,0,0,1,1.36,1.47L213,120.83a1,1,0,0,1-1.09.18l-16.41-7.44L178,129.09A1,1,0,0,1,177.36,129.34Z" fill="#093f68"></path><circle cx="212.15" cy="120.18" r="4.16" fill="#68e1fd"></circle><path d="M212.15,125.33a5.16,5.16,0,1,1,5.16-5.15A5.16,5.16,0,0,1,212.15,125.33Zm0-8.31a3.16,3.16,0,1,0,3.16,3.16A3.16,3.16,0,0,0,212.15,117Z" fill="#093f68"></path><circle cx="195.3" cy="112.39" r="4.16" fill="#68e1fd"></circle><path d="M195.3,117.54a5.16,5.16,0,1,1,5.16-5.15A5.16,5.16,0,0,1,195.3,117.54Zm0-8.31a3.16,3.16,0,1,0,3.16,3.16A3.17,3.17,0,0,0,195.3,109.23Z" fill="#093f68"></path><circle cx="233.43" cy="101.04" r="4.16" fill="#68e1fd"></circle><path d="M233.43,106.2a5.16,5.16,0,1,1,5.16-5.16A5.17,5.17,0,0,1,233.43,106.2Zm0-8.32a3.16,3.16,0,1,0,3.16,3.16A3.17,3.17,0,0,0,233.43,97.88Z" fill="#093f68"></path><circle cx="177.36" cy="128.34" r="4.16" fill="#68e1fd"></circle><path d="M177.36,133.5a5.16,5.16,0,1,1,5.16-5.16A5.16,5.16,0,0,1,177.36,133.5Zm0-8.31a3.16,3.16,0,1,0,3.16,3.15A3.16,3.16,0,0,0,177.36,125.19Z" fill="#093f68"></path><path d="M244.62,143.59H166.16a1,1,0,0,1-1-1V92.07a1,1,0,0,1,2,0v49.52h77.46a1,1,0,0,1,0,2Z" fill="#dfeaef"></path><path d="M211.56,178a22.7,22.7,0,1,1-22.7-22.71A22.52,22.52,0,0,1,211.56,178Z" fill="#68e1fd"></path><path d="M188.86,201.65a23.71,23.71,0,1,1,23.7-23.7,23.72,23.72,0,0,1-23.7,23.7Zm0-45.41a21.71,21.71,0,0,0,0,43.41,21.3,21.3,0,0,0,6.78-1.09,21.54,21.54,0,0,0,9.5-6.27,21.25,21.25,0,0,0,3.94-6.46,21.71,21.71,0,0,0-20.22-29.59Z" fill="#093f68"></path><path d="M211.56,178a22.68,22.68,0,0,1-5.67,15l-17-15V155.24A22.7,22.7,0,0,1,211.56,178Z" fill="#fff"></path><path d="M205.89,194a1,1,0,0,1-.66-.25l-17-15a1,1,0,0,1-.34-.75V155.24a1,1,0,0,1,1-1A23.73,23.73,0,0,1,212.56,178a23.71,23.71,0,0,1-5.92,15.67A1,1,0,0,1,205.89,194Zm-16-16.45,15.93,14a21.33,21.33,0,0,0,3.29-5.7,21.71,21.71,0,0,0-19.22-29.56Z" fill="#093f68"></path><path d="M210,186.19A22.73,22.73,0,0,1,196,199.51L188.86,178Z" fill="#fff"></path><path d="M196,200.51a1,1,0,0,1-.95-.68l-7.09-21.56a1,1,0,0,1,1.32-1.25l21.15,8.24a1,1,0,0,1,.57,1.3,23.74,23.74,0,0,1-14.69,13.9A.81.81,0,0,1,196,200.51Zm-5.47-20.85,6.1,18.57a21.57,21.57,0,0,0,8.56-5.94,21.31,21.31,0,0,0,3.56-5.54Z" fill="#093f68"></path><rect x="130.35" y="151.95" width="7.36" height="27.04" fill="#093f68"></rect><path d="M137.71,180h-7.36a1,1,0,0,1-1-1V152a1,1,0,0,1,1-1h7.36a1,1,0,0,1,1,1v27A1,1,0,0,1,137.71,180Zm-6.36-2h5.36V153h-5.36Z" fill="#093f68"></path><rect x="128.97" y="175.35" width="10.11" height="45.51" rx="3.34" fill="#ffbc0e"></rect><path d="M135.74,221.86h-3.42a4.35,4.35,0,0,1-4.35-4.35V178.69a4.34,4.34,0,0,1,4.35-4.34h3.42a4.34,4.34,0,0,1,4.34,4.34v38.82A4.35,4.35,0,0,1,135.74,221.86Zm-3.42-45.51a2.35,2.35,0,0,0-2.35,2.34v38.82a2.35,2.35,0,0,0,2.35,2.35h3.42a2.35,2.35,0,0,0,2.34-2.35V178.69a2.34,2.34,0,0,0-2.34-2.34Z" fill="#093f68"></path><circle cx="133.58" cy="140.49" r="24.16" fill="#ffbc0e"></circle><path d="M133.58,165.65a25.16,25.16,0,1,1,25.15-25.16A25.18,25.18,0,0,1,133.58,165.65Zm0-48.31a23.16,23.16,0,1,0,23.15,23.15A23.18,23.18,0,0,0,133.58,117.34Z" fill="#093f68"></path><circle cx="133.58" cy="140.49" r="17.08" fill="#fff"></circle><path d="M133.58,158.58a18.09,18.09,0,1,1,18.08-18.09A18.12,18.12,0,0,1,133.58,158.58Zm0-34.17a16.09,16.09,0,1,0,16.08,16.08A16.11,16.11,0,0,0,133.58,124.41Z" fill="#093f68"></path><path d="M123.56,146.59a1,1,0,0,1-.7-.29,1,1,0,0,1,0-1.42l10.81-10.82a1,1,0,1,1,1.42,1.42L124.27,146.3A1,1,0,0,1,123.56,146.59Z" fill="#dfeaef"></path><path d="M133.65,150.67a1,1,0,0,1-.7-.29,1,1,0,0,1,0-1.42l8.1-8.16a1,1,0,0,1,1.42,0,1,1,0,0,1,0,1.41l-8.11,8.16A1,1,0,0,1,133.65,150.67Z" fill="#dfeaef"></path><rect x="262.15" y="143.24" width="8.47" height="61.1" fill="#f56132"></rect><path d="M270.62,205.34h-8.47a1,1,0,0,1-1-1v-61.1a1,1,0,0,1,1-1h8.47a1,1,0,0,1,1,1v61.1A1,1,0,0,1,270.62,205.34Zm-7.47-2h6.47v-59.1h-6.47Z" fill="#093f68"></path><polygon points="267.08 215.35 270.63 204.34 262.15 204.34 265.7 215.35 267.08 215.35" fill="#f56132"></polygon><path d="M267.08,216.35H265.7a1,1,0,0,1-1-.7l-3.54-11a1,1,0,0,1,.14-.89,1,1,0,0,1,.81-.41h8.47a1,1,0,0,1,.81.41,1,1,0,0,1,.15.89l-3.55,11A1,1,0,0,1,267.08,216.35Zm-3.56-11,2.87,8.9,2.86-8.9Z" fill="#093f68"></path><path d="M265.7,215.35h1.38a0,0,0,0,1,0,0v3.72a.69.69,0,0,1-.69.69h0a.69.69,0,0,1-.69-.69v-3.72A0,0,0,0,1,265.7,215.35Z" fill="#68e1fd"></path><path d="M266.39,220.76a1.69,1.69,0,0,1-1.69-1.69v-3.72a1,1,0,0,1,1-1h1.38a1,1,0,0,1,1,1v3.72A1.69,1.69,0,0,1,266.39,220.76Z" fill="#093f68"></path><path d="M263.33,139.53h6.07a2.61,2.61,0,0,1,2.61,2.61V176.6a0,0,0,0,1,0,0H260.72a0,0,0,0,1,0,0V142.14A2.61,2.61,0,0,1,263.33,139.53Z" fill="#f56132"></path><path d="M272,177.6H260.72a1,1,0,0,1-1-1V142.14a3.61,3.61,0,0,1,3.61-3.61h6.06a3.61,3.61,0,0,1,3.61,3.61V176.6A1,1,0,0,1,272,177.6Zm-10.28-2H271V142.14a1.62,1.62,0,0,0-1.61-1.61h-6.06a1.62,1.62,0,0,0-1.61,1.61Z" fill="#093f68"></path><path d="M275.2,170a1,1,0,0,1-.71-.3c-3.28-3.29-1.39-10,.27-16,.79-2.82,1.6-5.73,1.33-6.89-.24-1-.69-1.21-.84-1.27a3.83,3.83,0,0,0-2.74.53,1,1,0,1,1-1-1.72c.26-.15,2.59-1.48,4.54-.65a3.57,3.57,0,0,1,2,2.65c.39,1.66-.38,4.41-1.35,7.89-1.44,5.14-3.24,11.54-.78,14a1,1,0,0,1,0,1.42A1,1,0,0,1,275.2,170Z" fill="#093f68"></path><path d="M241.51,159.24H225.83a1,1,0,0,1,0-2h15.68a1,1,0,0,1,0,2Z" fill="#dfeaef"></path><path d="M241.51,168.79H221.23a1,1,0,0,1,0-2h20.28a1,1,0,0,1,0,2Z" fill="#dfeaef"></path><path d="M241.51,178.35h-5.82a1,1,0,0,1,0-2h5.82a1,1,0,0,1,0,2Z" fill="#dfeaef"></path><path d="M227.05,178.35h-5.82a1,1,0,0,1,0-2h5.82a1,1,0,0,1,0,2Z" fill="#dfeaef"></path><path d="M241.51,187.9H221.23a1,1,0,0,1,0-2h20.28a1,1,0,0,1,0,2Z" fill="#dfeaef"></path><path d="M230.43,197.45h-9.2a1,1,0,1,1,0-2h9.2a1,1,0,0,1,0,2Z" fill="#dfeaef"></path><path d="M229.51,130.41h43.17V83.6Zm36.17-7.24H245.79l19.89-21.57Z" fill="#70cc40"></path><path d="M272.68,131.41H229.51a1,1,0,0,1-.92-.6,1,1,0,0,1,.18-1.07l43.17-46.81a1,1,0,0,1,1.1-.26,1,1,0,0,1,.64.93v46.81A1,1,0,0,1,272.68,131.41Zm-40.89-2h39.89V86.16Zm33.89-5.24H245.79a1,1,0,0,1-.74-1.67l19.89-21.57a1,1,0,0,1,1.1-.26,1,1,0,0,1,.64.93v21.57A1,1,0,0,1,265.68,124.17Zm-17.61-2h16.61v-18Z" fill="#093f68"></path><path d="M195.3,93.07H181.52a1,1,0,0,1,0-2H195.3a1,1,0,0,1,0,2Z" fill="#dfeaef"></path><path d="M186.23,100h-4.71a1,1,0,0,1,0-2h4.71a1,1,0,0,1,0,2Z" fill="#dfeaef"></path><path d="M210,93.07h-4.62a1,1,0,0,1,0-2H210a1,1,0,0,1,0,2Z" fill="#dfeaef"></path></g></svg>